<svg width="28" height="27" viewBox="0 0 28 27" fill="none" xmlns="http://www.w3.org/2000/svg">
<path d="M16.3569 13.5065L27.1398 2.58654C27.2797 2.44667 27.3908 2.28009 27.4667 2.09645C27.5425 1.91281 27.5815 1.71577 27.5815 1.51674C27.5815 1.31772 27.5425 1.12068 27.4667 0.937041C27.3908 0.753403 27.2797 0.58682 27.1398 0.446952C26.858 0.165899 26.4782 0.00834432 26.0825 0.00834432C25.6867 0.00834432 25.3069 0.165899 25.0251 0.446952L14.2422 11.3669L3.44935 0.446952C3.31111 0.305366 3.14646 0.192953 2.96496 0.11623C2.78346 0.0395068 2.58871 0 2.39201 0C2.1953 0 2.00055 0.0395068 1.81905 0.11623C1.63755 0.192953 1.4729 0.305366 1.33466 0.446952C1.05688 0.73209 0.901161 1.11638 0.901161 1.51674C0.901161 1.91711 1.05688 2.3014 1.33466 2.58654L12.1275 13.5065L1.33466 24.4164C1.19473 24.5562 1.08362 24.7228 1.00779 24.9064C0.931961 25.0901 0.892914 25.2871 0.892914 25.4861C0.892914 25.6852 0.931961 25.8822 1.00779 26.0658C1.08362 26.2495 1.19473 26.4161 1.33466 26.5559C1.61521 26.8394 1.9955 26.9987 2.39201 26.9987C2.78851 26.9987 3.1688 26.8394 3.44935 26.5559L14.2422 15.6461L25.0251 26.5559C25.3061 26.839 25.686 26.9985 26.0825 27C26.3782 26.9997 26.6672 26.9108 26.913 26.7444C27.1588 26.5781 27.3504 26.3417 27.4636 26.0653C27.5767 25.7888 27.6063 25.4847 27.5487 25.1912C27.4911 24.8977 27.3488 24.6281 27.1398 24.4164L16.3569 13.5065Z" fill="#F25B26"/>
</svg>
