<svg width="32" height="21" viewBox="0 0 32 21" fill="none" xmlns="http://www.w3.org/2000/svg">
<path d="M31.1195 0.429509C30.9787 0.293412 30.8111 0.185389 30.6265 0.111671C30.4418 0.0379536 30.2438 0 30.0438 0C29.8438 0 29.6458 0.0379536 29.4611 0.111671C29.2765 0.185389 29.1089 0.293412 28.9681 0.429509L11.1707 17.4958L3.46396 10.1097C3.17675 9.85325 2.79687 9.71362 2.40435 9.72025C2.01184 9.72689 1.63734 9.87928 1.35975 10.1453C1.08215 10.4114 0.923147 10.7703 0.916221 11.1464C0.909296 11.5226 1.05499 11.8867 1.32262 12.1619L10.1001 20.5741C10.2403 20.7094 10.4071 20.8167 10.5909 20.8898C10.7747 20.9629 10.9718 21.0004 11.1707 21C11.5722 20.9986 11.9569 20.8456 12.2414 20.5741L31.1195 2.48172C31.4008 2.20822 31.5585 1.83963 31.5585 1.45561C31.5585 1.0716 31.4008 0.703003 31.1195 0.429509Z" fill="#3DC644"/>
</svg>
